<svg width="143" height="60" viewBox="0 0 143 60" fill="none" xmlns="http://www.w3.org/2000/svg">
<path d="M60.23 42.3517H64.9189V33.6998H74.1455V29.6159H64.9189V23.8985H75.6581V19.8146H60.23V42.3517Z" fill="white"/>
<path d="M77.6521 24.3522H82.1897V19.8146H77.6521V24.3522ZM77.6521 42.3517H82.1897V25.8345H77.6521V42.3517Z" fill="white"/>
<path d="M85.5103 42.3517H90.0479V32.7016C90.0479 31.7537 90.3303 30.9974 90.895 30.4327C91.4597 29.8479 92.1857 29.5554 93.0731 29.5554C93.9604 29.5554 94.6865 29.8479 95.2512 30.4327C95.8158 30.9974 96.0982 31.7537 96.0982 32.7016V42.3517H100.636V31.7335C100.636 30.4831 100.374 29.3941 99.8493 28.4664C99.325 27.5185 98.5889 26.7824 97.641 26.2581C96.7133 25.7337 95.6243 25.4715 94.3739 25.4715C93.3252 25.4715 92.3975 25.6732 91.5908 26.0765C90.7841 26.4597 90.169 27.0547 89.7454 27.8614V25.8345H85.5103V42.3517Z" fill="white"/>
<path d="M105.616 42.3517H110.154V29.7672H113.693V25.8345H110.154V25.5925C110.154 24.1203 111.011 23.3842 112.725 23.3842C113.008 23.3842 113.34 23.4144 113.724 23.4749V19.6028C113.26 19.502 112.725 19.4515 112.12 19.4515C110.063 19.4515 108.46 19.986 107.31 21.0548C106.181 22.1237 105.616 23.6363 105.616 25.5925V25.8345H102.833V29.7672H105.616V42.3517Z" fill="white"/>
<path d="M116.027 42.3517H120.565V33.4578C120.565 32.2276 120.908 31.2797 121.594 30.6142C122.279 29.9285 123.177 29.5857 124.286 29.5857H125.708V25.653H124.74C123.731 25.653 122.834 25.8446 122.047 26.2278C121.281 26.5908 120.686 27.2866 120.262 28.3151V25.8345H116.027V42.3517Z" fill="white"/>
<path d="M132.809 42.7147C134.866 42.7147 136.52 42.0794 137.77 40.8089V42.3517H142.005V31.4613C142.005 30.2714 141.703 29.2328 141.098 28.3454C140.513 27.4378 139.686 26.732 138.617 26.2278C137.548 25.7236 136.318 25.4715 134.927 25.4715C133.172 25.4715 131.629 25.8749 130.298 26.6816C128.987 27.4883 128.09 28.5773 127.606 29.9487L131.236 31.673C131.518 30.947 131.962 30.3621 132.567 29.9184C133.192 29.4748 133.908 29.2529 134.715 29.2529C135.562 29.2529 136.227 29.4647 136.711 29.8882C137.216 30.3117 137.468 30.8361 137.468 31.4613V31.915L132.9 32.6411C130.923 32.9637 129.451 33.5788 128.483 34.4864C127.515 35.3939 127.031 36.5435 127.031 37.935C127.031 39.4274 127.545 40.5971 128.574 41.4441C129.622 42.2912 131.034 42.7147 132.809 42.7147ZM131.72 37.7837C131.72 37.2392 131.891 36.8258 132.234 36.5435C132.577 36.2409 133.071 36.0292 133.716 35.9082L137.468 35.2427V35.7569C137.468 36.7653 137.125 37.6224 136.439 38.3283C135.753 39.0341 134.846 39.3871 133.716 39.3871C133.152 39.3871 132.678 39.2459 132.295 38.9635C131.911 38.6812 131.72 38.2879 131.72 37.7837Z" fill="white"/>
<path d="M19.868 24.7771C19.7562 24.6668 19.6054 24.6049 19.4483 24.6049C19.2912 24.6049 19.1404 24.6668 19.0286 24.7771L17.7429 26.0628C17.633 26.1733 17.5713 26.3229 17.5713 26.4788C17.5713 26.6346 17.633 26.7842 17.7429 26.8947L26.062 35.2138C26.1725 35.3237 26.322 35.3854 26.4779 35.3854C26.6338 35.3854 26.7834 35.3237 26.8939 35.2138L28.1796 33.9281C28.2351 33.8732 28.2792 33.8079 28.3093 33.7358C28.3395 33.6638 28.355 33.5865 28.355 33.5084C28.355 33.4303 28.3395 33.353 28.3093 33.2809C28.2792 33.2089 28.2351 33.1435 28.1796 33.0886L19.868 24.7771Z" fill="#0EB770"/>
<path d="M24.7763 26.9023L26.062 28.188C26.1162 28.2433 26.181 28.2873 26.2524 28.3173C26.3238 28.3473 26.4005 28.3627 26.478 28.3627C26.5554 28.3627 26.6321 28.3473 26.7036 28.3173C26.775 28.2873 26.8397 28.2433 26.8939 28.188L36.6046 18.4849C36.6588 18.4296 36.7235 18.3856 36.7949 18.3556C36.8663 18.3256 36.943 18.3101 37.0205 18.3101C37.098 18.3101 37.1747 18.3256 37.2461 18.3556C37.3175 18.3856 37.3822 18.4296 37.4365 18.4849L41.5128 22.5537C41.6214 22.6664 41.6821 22.8169 41.6821 22.9734C41.6821 23.1299 41.6214 23.2804 41.5128 23.3931L38.828 26.0704C38.7181 26.1809 38.6564 26.3304 38.6564 26.4863C38.6564 26.6422 38.7181 26.7917 38.828 26.9023L40.1213 28.188C40.1755 28.2433 40.2402 28.2873 40.3116 28.3173C40.383 28.3473 40.4597 28.3627 40.5372 28.3627C40.6147 28.3627 40.6914 28.3473 40.7628 28.3173C40.8342 28.2873 40.8989 28.2433 40.9532 28.188L45.7555 23.3931C45.8641 23.2804 45.9248 23.1299 45.9248 22.9734C45.9248 22.8169 45.8641 22.6664 45.7555 22.5537L37.4365 14.2346C37.3822 14.1793 37.3175 14.1353 37.2461 14.1053C37.1747 14.0753 37.098 14.0598 37.0205 14.0598C36.943 14.0598 36.8663 14.0753 36.7949 14.1053C36.7235 14.1353 36.6588 14.1793 36.6046 14.2346L24.7763 26.0704C24.721 26.1246 24.677 26.1893 24.647 26.2607C24.617 26.3322 24.6016 26.4089 24.6016 26.4863C24.6016 26.5638 24.617 26.6405 24.647 26.7119C24.677 26.7833 24.721 26.8481 24.7763 26.9023V26.9023Z" fill="#0EB770"/>
<path d="M26.0622 21.1848C26.1727 21.2948 26.3223 21.3565 26.4782 21.3565C26.634 21.3565 26.7836 21.2948 26.8941 21.1848L28.1798 19.8992C28.2353 19.8443 28.2795 19.7789 28.3096 19.7069C28.3397 19.6348 28.3552 19.5575 28.3552 19.4794C28.3552 19.4013 28.3397 19.324 28.3096 19.252C28.2795 19.1799 28.2353 19.1146 28.1798 19.0597L18.4767 9.33395C18.4212 9.27908 18.377 9.21372 18.3469 9.14167C18.3168 9.06962 18.3013 8.99231 18.3013 8.91422C18.3013 8.83612 18.3168 8.75881 18.3469 8.68676C18.377 8.61471 18.4212 8.54935 18.4767 8.49448L22.5455 4.4257C22.6582 4.3171 22.8087 4.25642 22.9652 4.25642C23.1218 4.25642 23.2722 4.3171 23.385 4.4257L27.4538 8.49448C27.5624 8.60722 27.623 8.75767 27.623 8.91422C27.623 9.07076 27.5624 9.22121 27.4538 9.33395L24.7765 12.0112C24.7212 12.0654 24.6772 12.1301 24.6472 12.2015C24.6172 12.273 24.6017 12.3497 24.6017 12.4271C24.6017 12.5046 24.6172 12.5813 24.6472 12.6527C24.6772 12.7241 24.7212 12.7889 24.7765 12.8431L26.0622 14.1363C26.1727 14.2462 26.3223 14.3079 26.4782 14.3079C26.634 14.3079 26.7836 14.2462 26.8941 14.1363L31.6965 9.33395C31.752 9.27908 31.7962 9.21372 31.8263 9.14167C31.8564 9.06962 31.8719 8.99231 31.8719 8.91422C31.8719 8.83612 31.8564 8.75881 31.8263 8.68676C31.7962 8.61471 31.752 8.54935 31.6965 8.49448L23.3774 0.175408C23.3225 0.119843 23.2572 0.0757263 23.1851 0.0456156C23.1131 0.015505 23.0358 0 22.9577 0C22.8796 0 22.8023 0.015505 22.7302 0.0456156C22.6582 0.0757263 22.5928 0.119843 22.5379 0.175408L14.2189 8.49448C14.1633 8.54935 14.1192 8.61471 14.0891 8.68676C14.059 8.75881 14.0435 8.83612 14.0435 8.91422C14.0435 8.99231 14.059 9.06962 14.0891 9.14167C14.1192 9.21372 14.1633 9.27908 14.2189 9.33395L26.0622 21.1848Z" fill="#0EB770"/>
<path d="M21.1766 19.037L19.8909 17.7513C19.7782 17.6427 19.6278 17.582 19.4712 17.582C19.3147 17.582 19.1642 17.6427 19.0515 17.7513L10.7324 26.0704C10.6771 26.1246 10.6331 26.1893 10.6031 26.2607C10.5731 26.3322 10.5576 26.4089 10.5576 26.4863C10.5576 26.5638 10.5731 26.6405 10.6031 26.7119C10.6331 26.7834 10.6771 26.8481 10.7324 26.9023L12.0181 28.188C12.0723 28.2433 12.137 28.2873 12.2084 28.3173C12.2799 28.3473 12.3566 28.3627 12.434 28.3627C12.5115 28.3627 12.5882 28.3473 12.6596 28.3173C12.731 28.2873 12.7958 28.2433 12.85 28.188L21.1691 19.8689C21.2765 19.7575 21.3371 19.6092 21.3385 19.4544C21.3399 19.2997 21.282 19.1503 21.1766 19.037V19.037Z" fill="#0EB770"/>
<path d="M12.003 35.2214C12.1135 35.3313 12.2631 35.393 12.419 35.393C12.5748 35.393 12.7244 35.3313 12.8349 35.2214L14.1282 33.9357C14.2368 33.823 14.2974 33.6725 14.2974 33.516C14.2974 33.3594 14.2368 33.209 14.1282 33.0962L4.41752 23.3932C4.30892 23.2804 4.24825 23.13 4.24825 22.9734C4.24825 22.8169 4.30892 22.6665 4.41752 22.5537L8.48631 18.4849C8.54118 18.4294 8.60653 18.3852 8.67859 18.3551C8.75064 18.325 8.82795 18.3095 8.90604 18.3095C8.98413 18.3095 9.06145 18.325 9.1335 18.3551C9.20555 18.3852 9.27091 18.4294 9.32578 18.4849L12.003 21.1848C12.0581 21.2427 12.1244 21.2888 12.1978 21.3203C12.2713 21.3518 12.3504 21.3681 12.4303 21.3681C12.5102 21.3681 12.5893 21.3518 12.6628 21.3203C12.7362 21.2888 12.8025 21.2427 12.8576 21.1848L14.1508 19.8992C14.2594 19.7864 14.3201 19.636 14.3201 19.4794C14.3201 19.3229 14.2594 19.1724 14.1508 19.0597L9.34846 14.2649C9.29359 14.2093 9.22824 14.1652 9.15619 14.1351C9.08413 14.105 9.00682 14.0895 8.92873 14.0895C8.85064 14.0895 8.77333 14.105 8.70127 14.1351C8.62922 14.1652 8.56387 14.2093 8.509 14.2649L0.189922 22.584C0.134584 22.6382 0.0906211 22.7029 0.0606084 22.7743C0.0305958 22.8457 0.0151367 22.9224 0.0151367 22.9999C0.0151367 23.0774 0.0305958 23.1541 0.0606084 23.2255C0.0906211 23.2969 0.134584 23.3616 0.189922 23.4159L12.003 35.2214Z" fill="#0EB770"/>
<path d="M21.1767 33.0962L19.891 31.8105C19.7782 31.7019 19.6278 31.6413 19.4713 31.6413C19.3147 31.6413 19.1643 31.7019 19.0515 31.8105L9.32577 41.5212C9.21302 41.6298 9.06257 41.6904 8.90603 41.6904C8.74949 41.6904 8.59904 41.6298 8.4863 41.5212L4.41751 37.4448C4.3076 37.3343 4.2459 37.1847 4.2459 37.0289C4.2459 36.873 4.3076 36.7234 4.41751 36.6129L7.09474 33.9357C7.15031 33.8808 7.19442 33.8154 7.22453 33.7434C7.25464 33.6713 7.27015 33.594 7.27015 33.5159C7.27015 33.4378 7.25464 33.3605 7.22453 33.2885C7.19442 33.2164 7.15031 33.1511 7.09474 33.0962L5.80907 31.8105C5.69854 31.7006 5.54899 31.6389 5.39311 31.6389C5.23723 31.6389 5.08769 31.7006 4.97716 31.8105L0.174785 36.6129C0.119447 36.6671 0.0754843 36.7318 0.0454717 36.8033C0.015459 36.8747 0 36.9514 0 37.0289C0 37.1063 0.015459 37.183 0.0454717 37.2544C0.0754843 37.3259 0.119447 37.3906 0.174785 37.4448L8.49386 45.7639C8.6066 45.8725 8.75705 45.9332 8.91359 45.9332C9.07014 45.9332 9.22058 45.8725 9.33333 45.7639L21.1767 33.9357C21.2853 33.8229 21.3459 33.6725 21.3459 33.5159C21.3459 33.3594 21.2853 33.2089 21.1767 33.0962V33.0962Z" fill="#0EB770"/>
<path d="M19.8681 38.8364C19.7554 38.7278 19.605 38.6671 19.4484 38.6671C19.2919 38.6671 19.1414 38.7278 19.0287 38.8364L17.743 40.1296C17.6331 40.2402 17.5714 40.3897 17.5714 40.5456C17.5714 40.7015 17.6331 40.851 17.743 40.9615L27.4536 50.6797C27.5635 50.7903 27.6252 50.9398 27.6252 51.0957C27.6252 51.2516 27.5635 51.4011 27.4536 51.5116L23.3848 55.5804C23.33 55.636 23.2646 55.6801 23.1926 55.7102C23.1205 55.7403 23.0432 55.7558 22.9651 55.7558C22.887 55.7558 22.8097 55.7403 22.7377 55.7102C22.6656 55.6801 22.6002 55.636 22.5454 55.5804L18.4766 51.5116C18.4213 51.4574 18.3773 51.3927 18.3473 51.3213C18.3173 51.2498 18.3018 51.1732 18.3018 51.0957C18.3018 51.0182 18.3173 50.9415 18.3473 50.8701C18.3773 50.7987 18.4213 50.7339 18.4766 50.6797L21.1765 47.9874C21.2864 47.8768 21.3481 47.7273 21.3481 47.5714C21.3481 47.4155 21.2864 47.266 21.1765 47.1555L19.8908 45.8698C19.836 45.8142 19.7706 45.7701 19.6986 45.74C19.6265 45.7099 19.5492 45.6944 19.4711 45.6944C19.393 45.6944 19.3157 45.7099 19.2436 45.74C19.1716 45.7701 19.1062 45.8142 19.0514 45.8698L14.2339 50.6797C14.1785 50.7339 14.1346 50.7987 14.1046 50.8701C14.0745 50.9415 14.0591 51.0182 14.0591 51.0957C14.0591 51.1732 14.0745 51.2498 14.1046 51.3213C14.1346 51.3927 14.1785 51.4574 14.2339 51.5116L22.5529 59.8307C22.6657 59.9393 22.8161 60 22.9727 60C23.1292 60 23.2797 59.9393 23.3924 59.8307L31.7115 51.5116C31.8214 51.4011 31.8831 51.2516 31.8831 51.0957C31.8831 50.9398 31.8214 50.7903 31.7115 50.6797L19.8681 38.8364Z" fill="#0EB770"/>
<path d="M24.7762 40.9616L26.0619 42.2473C26.1161 42.3026 26.1809 42.3466 26.2523 42.3766C26.3237 42.4066 26.4004 42.4221 26.4779 42.4221C26.5553 42.4221 26.632 42.4066 26.7035 42.3766C26.7749 42.3466 26.8396 42.3026 26.8938 42.2473L35.2129 33.9282C35.3215 33.8155 35.3822 33.665 35.3822 33.5085C35.3822 33.3519 35.3215 33.2015 35.2129 33.0887L33.9272 31.8031C33.8145 31.6945 33.664 31.6338 33.5075 31.6338C33.351 31.6338 33.2005 31.6945 33.0878 31.8031L24.7687 40.1221C24.7127 40.177 24.6683 40.2426 24.6383 40.315C24.6082 40.3874 24.5931 40.4651 24.5938 40.5435C24.5945 40.6219 24.611 40.6993 24.6424 40.7712C24.6737 40.843 24.7193 40.9078 24.7762 40.9616V40.9616Z" fill="#0EB770"/>
<path d="M33.9276 24.7848C33.8727 24.7292 33.8074 24.6851 33.7353 24.655C33.6633 24.6249 33.586 24.6094 33.5079 24.6094C33.4298 24.6094 33.3525 24.6249 33.2804 24.655C33.2084 24.6851 33.143 24.7292 33.0881 24.7848L31.8025 26.0705C31.6926 26.181 31.6309 26.3305 31.6309 26.4864C31.6309 26.6423 31.6926 26.7918 31.8025 26.9024L41.5131 36.613C41.623 36.7235 41.6847 36.8731 41.6847 37.0289C41.6847 37.1848 41.623 37.3344 41.5131 37.4449L37.4368 41.5212C37.3262 41.6312 37.1767 41.6929 37.0208 41.6929C36.8649 41.6929 36.7154 41.6312 36.6048 41.5212L33.9276 38.8365C33.8149 38.7279 33.6644 38.6672 33.5079 38.6672C33.3513 38.6672 33.2009 38.7279 33.0881 38.8365L31.8025 40.0919C31.6939 40.2046 31.6332 40.3551 31.6332 40.5116C31.6332 40.6682 31.6939 40.8186 31.8025 40.9313L36.6048 45.764C36.7154 45.8739 36.8649 45.9356 37.0208 45.9356C37.1767 45.9356 37.3262 45.8739 37.4368 45.764L45.7558 37.4449C45.8657 37.3344 45.9274 37.1848 45.9274 37.0289C45.9274 36.8731 45.8657 36.7235 45.7558 36.613L33.9276 24.7848Z" fill="#0EB770"/>
</svg>
